<?xml version="1.0" encoding="UTF-8"?>
<svg version="1.1" viewBox="0 0 1764 2016" width="1280" height="1280" xmlns="http://www.w3.org/2000/svg">
<path transform="translate(618,434)" d="m0 0h29l1 1v357l1 24 3 21 5 19 8 21 12 23 16 21 9 10 6 7 11 9 14 11 13 9 16 8 19 7 28 7 22 3h75l78-1 24-1 2-2 17-3 7-3 17-6 17-8h4l-1 4-4 4-3 10 1 11 2 4h4v2l-16 8-16 5-17 4-10 2-3 1-15 1h-155l-26-2-27-6-23-7-21-9-21-12-16-12-14-12-17-17-7-8-9-12-10-16-12-23-8-21-7-28-3-20-1-27v-356z" fill="#DD1B20"/>
<path transform="translate(821,745)" d="m0 0h184l27 4 19 5 24 9 20 10 19 12 16 12 15 14 13 14 13 18 12 20 11 23 7 21 5 21 3 23 1 18v364l-1 1h-28l-1-1-1-375-3-22-5-22-8-22-8-16-8-14-12-16-11-12-10-10-17-13-21-13-14-7-25-9-19-5-18-2h-119l-59 2-4 2-16 3-25 9-21 9v-3l11-6 3-3 2-6 1-7 1-1v-5l-5-4-8 1-4 1 3-3 16-7 24-8 16-3z" fill="#E01B20"/>
<path transform="translate(822,788)" d="m0 0h170l20 2 23 5 15 5 16 7 15 9 14 10 14 12 9 9 11 14 8 11 9 16 8 18 7 21 3 14 2 20 1 372-1 1h-29l-1-1v-351l-1-26-4-22-5-17-9-19-10-16-10-13-12-12-13-10-15-9-16-8-14-5-20-5-7-1-17-1h-34l-82 1-42 2-3 2-15 4-17 7-20 10-4-1-6-13v-5l5 2 4-3 1-5-6-4h-2l-1 5-1 4h-2l-2-5v-5l16-9 18-8 16-5h8z" fill="#DD1B20"/>
<path transform="translate(661,434)" d="m0 0h30l1 367 1 16 5 23 7 19 8 15 11 16 11 12 10 10 14 11 13 8 16 7 21 7 21 3h97l64-1 12-1 26-8 23-11 5-3 4 1 7 14 1 6-2 1-3-3-5-12-5 1v3h-2v6l3 6 4 1 5 7v2l-10 6-14 6-23 7-11 1-4 2h-172l-15-2-22-5-13-4-20-9-14-8-18-13-13-12-7-7-11-14-10-15-10-19-6-16-5-17-4-21-1-10z" fill="#DB1A1F"/>
<path transform="translate(706,434)" d="m0 0h30l1 366 1 15 4 16 7 16 9 15 11 12 9 8 14 9 15 7 17 5 5 1h139l24-1 13-4 17-7 7 1 11 7 7 7 5 7-18 10-17 7-22 5-165-1-22-4-18-6-16-8-13-9-13-12-10-10-10-14-8-14-6-13-4-12-4-22-1-34v-319z" fill="#E11B20"/>
<path transform="translate(829,832)" d="m0 0h156l17 1 16 3 15 5 16 8 12 7 14 11 8 7 7 8 10 13 9 17 7 18 4 17 1 9 1 144v233l-1 1h-28l-1-1-1-36v-126l-1-213-3-16-6-17-9-16-9-11-11-11-10-7-16-8-15-5-8-2-9-1h-98l-65 1-4 3-9 2-15 6-5-2-7-4-10-9-5-6 1-3 6-3 10-6 18-7 12-1z" fill="#DD1B20"/>
<path transform="translate(630,924)" d="m0 0 4 2 3 5 7 10 5 5 6 7 2 8 1 40v21l-1 86v224l-1 2h-29l-1-1-1-240-1-105 1-32 1-7h1l2 18 4 8 2 2 7-1 6-3h3l1-17-6-8-6-7-2-5-6-5-2 6h-1z" fill="#800E13"/>
<path transform="translate(1172,434)" d="m0 0h28l1 1 1 225 1 73 1 31v33l-2 5-11 2-4 1-13 1-1 5 4 5 6 9 5 6-1 3-9-11-10-14v-8l2-13 1-72v-280z" fill="#800E13"/>
<path transform="translate(1128,434)" d="m0 0h28l1 1 1 276 1 35v49l-5 1-13-12-15-13-2-2v-19l2-78 1-237z" fill="#800E13"/>
<path transform="translate(668,971)" d="m0 0 7 4 11 9 12 9 3 4v336l-1 1h-28l-2-1-1-217-1-48z" fill="#7F0E13"/>
<path transform="translate(1084,434)" d="m0 0h29l1 256 1 37v36l-6-2-26-14-2-3v-31l1-50 1-228z" fill="#800E13"/>
<path transform="translate(712,1007)" d="m0 0 6 1 22 11 5 3v311l-1 1h-29l-1-2-1-243-1-37z" fill="#810E13"/>
<path transform="translate(706,434)" d="m0 0h30l1 366 1 15 4 16 7 16 9 15 11 12 9 8 14 9 15 7 17 5 5 1h139l24-1 13-4 17-7 7 1 11 7 7 7 5 7-18 10-17 7-22 5-165-1-22-4-3-2h14l2-4 2-1 3-1-2-4 1-7-1-4 4-1-13-3-13-5-14-7-17-12-11-11-11-17-8-17-4-13-2-10-1-343-1-33h-25v295l-1 48-2-2v-319z" fill="#800E13"/>
<path transform="translate(821,745)" d="m0 0h184l27 4 19 5 24 9 20 10 19 12 16 12 15 14 13 14 13 18 12 20 11 23 7 21 5 21 3 23 1 18v364l-1 1h-28v-1l25-1 2-1v-323l-1-50-2-21-6-28-8-24-8-17-10-17-13-19-12-14-13-13-11-9-13-10-20-12-16-8-15-6-19-6-19-4-20-2h-10v5l1 1-1 8h-2v6l7 2 6 3 7 1v1h-129l-59 2-4 2-16 3-25 9-21 9v-3l11-6 3-3 2-6 1-7 1-1v-5l-5-4-8 1-4 1 3-3 16-7 24-8 16-3z" fill="#800E13"/>
<path transform="translate(1068,968)" d="m0 0h4l-1 4-4 4-3 10 1 11 2 4h4v2l-16 8-16 5-17 4-10 2-3 1-15 1h-155l-15-1v-1l7-1v-3h2v-4l-5-7-1-6-3-2v-2l-4-2-27-7-15-5 3-1 28 7 22 3h75l78-1 24-1 2-2 17-3 7-3 17-6z" fill="#810E13"/>
<path transform="translate(822,788)" d="m0 0h170l20 2 23 5 15 5 16 7 1 2-5-1-13-6-17-5-14-3-11-1-2 2h-2l1 5 1 3-2 5h-2l2 4v6l3 1-23-1h-34l-82 1-42 2-3 2-15 4-17 7-20 10-4-1-6-13v-5l5 2 4-3 1-5-6-4h-2l-1 5-1 4h-2l-2-5v-5l16-9 18-8 16-5h8z" fill="#800E13"/>
<path transform="translate(1057,924)" d="m0 0 4 1 7 14 1 6-2 1-3-3-5-12-5 1v3h-2v6l3 6 4 1 5 7v2l-10 6-14 6-23 7-11 1-4 2h-172l-15-2-4-2 7-3 4-1v-6l-3-3 1-6-4-2v-2h-2v-2l-5-2-20-7-15-7 2-1 20 8 18 5 16 2h97l64-1 12-1 26-8 23-11z" fill="#7F0E13"/>
<path transform="translate(829,832)" d="m0 0h156l17 1 16 3 15 5 14 7-3 1-15-7-16-4-16-2-2 2 8 3-1 5-9 6-5 3 3 3v2l6 1 14 4-4 1-13-2h-98l-65 1-4 3-9 2-15 6-5-2-7-4-10-9-5-6 1-3 6-3 10-6 18-7 12-1z" fill="#800E13"/>
<path transform="translate(1173,435)" d="m0 0h25l1 1 1 99v35l-1 54-2 4-2-2v-3l-9-1-4 7-6-1-2-7-1-20-1-41-1-124z" fill="#E31C21"/>
<path transform="translate(629,1138)" d="m0 0 4 5 1 7h2v2h2l3 5v2l4 1 5-4h4l1 40 1 128 1 8-1 2-28-1v-191z" fill="#E21B20"/>
<path transform="translate(1130,435)" d="m0 0h25l1 1v106l-2 73-3 1-3-4 1-4-8-1-3 2-2 4-4-2-3-8-1-34v-132z" fill="#E31C21"/>
<path transform="translate(1086,435)" d="m0 0h25l1 1v116l-1 35-1 16-1 3-2-1 1-2-3 1-2-5-4 2-4 4-3 8h-2l-3-3-1-3-1-27v-144z" fill="#E31C21"/>
<path transform="translate(676,1164)" d="m0 0 4 1 7 12 3 1 4-1 4 2 1 3 1 44 1 107-1 1h-28v-142l1-26z" fill="#E21B20"/>
<path transform="translate(720,1161)" d="m0 0 5 2 4 8 4 2 4-7 5-1 1 33 1 105 1 28h-2v2h-27v-118l1-38 1-15z" fill="#E21B20"/>
<path transform="translate(706,434)" d="m0 0h27v1l-25 1v295l-1 48-2-2v-319z" fill="#8B0F14"/>
<path transform="translate(1208,973)" d="m0 0h2v360l-1 1h-28v-1l25-1 2-1z" fill="#7F0E13"/>
<path transform="translate(1171,778)" d="m0 0h1v18l6 3h10l5-1h8l2-1-1 5-11 2-4 1-13 1-1 5 4 5 6 9 5 6-1 3-9-11-10-14v-8z" fill="#E31C21"/>
<path transform="translate(767,811)" d="m0 0h5l1 3 2 1-1 4v12l-4 6-5-1-1-4h2l-4-5 4-1 3-2 1-5-6-4v-3z" fill="#E31C21"/>
<path transform="translate(1053,932)" d="m0 0 1 3h-2v6l3 6 4 1 5 7v2l-3 1-2-1-1-3-3-1v-2h-2v-2h-2v-2l-3-1-1-2v-8z" fill="#E31C21"/>
<path transform="translate(628,967)" d="m0 0 2 3 5 7 7-1 6-3h3l1-3-1 7-12 6-5-1-3-2v-2h-2l-1-4z" fill="#E31C21"/>
<path transform="translate(771,761)" d="m0 0 3 1 4 4 1 8-3 8-1 5h-2v2l-3 1 2-8 1-7 1-1v-5l-5-4-3-2z" fill="#E31C21"/>
<path transform="translate(1066,973)" d="m0 0 2 1-3 7-1 9 1 7 2 4h4v2l-5 1-3-2-2-5-2-14 2-4 2-3h2z" fill="#DF1B20"/>
<path transform="translate(1169,804)" d="m0 0h1l1 7 4 2 7 11 6 7-1 3-9-11-10-14z" fill="#9D1217"/>
<path transform="translate(630,924)" d="m0 0 4 2 3 5 4 5v2h-2l-5-6-2-1-2 6h-1z" fill="#8F1015"/>
<path transform="translate(1198,824)" d="m0 0h2v12l-2 2-1-2v-9z" fill="#931015"/>
<path transform="translate(1068,946)" d="m0 0 3 2 1 4-4 2-1-6z" fill="#A41318"/>
<path transform="translate(767,822)" d="m0 0" fill="#E31C21"/>
<path transform="translate(1064,955)" d="m0 0" fill="#E31C21"/>
<path transform="translate(1065,954)" d="m0 0" fill="#E31C21"/>
<path transform="translate(1064,953)" d="m0 0" fill="#E31C21"/>
<path transform="translate(1194,842)" d="m0 0" fill="#7F0E13"/>
<path transform="translate(756,767)" d="m0 0" fill="#E31C21"/>
</svg>
